<svg xmlns="http://www.w3.org/2000/svg" xmlns:xlink="http://www.w3.org/1999/xlink" viewBox="0 0 175.39 216.74"><defs><style>.cls-1{fill:none;clip-rule:evenodd;}.cls-2{fill:#404b97;}.cls-3{clip-path:url(#clip-path);}.cls-4{fill:url(#linear-gradient);}.cls-5{clip-path:url(#clip-path-2);}.cls-6{fill:url(#linear-gradient-2);}.cls-7{clip-path:url(#clip-path-3);}.cls-8{fill:url(#linear-gradient-3);}.cls-9{clip-path:url(#clip-path-4);}.cls-10{fill:url(#linear-gradient-4);}.cls-11{clip-path:url(#clip-path-5);}.cls-12{fill:url(#linear-gradient-5);}.cls-13{clip-path:url(#clip-path-6);}.cls-14{fill:url(#linear-gradient-6);}.cls-15{clip-path:url(#clip-path-7);}.cls-16{fill:url(#linear-gradient-7);}.cls-17{clip-path:url(#clip-path-8);}.cls-18{fill:url(#linear-gradient-8);}.cls-19{clip-path:url(#clip-path-9);}.cls-20{fill:url(#linear-gradient-9);}.cls-21{clip-path:url(#clip-path-10);}.cls-22{fill:url(#linear-gradient-10);}.cls-23{fill:#72817f;}</style><clipPath id="clip-path"><path class="cls-1" d="M30.3,18.38h-.07a2.71,2.71,0,0,0-1.86.78l-1.65,1.65a2.68,2.68,0,0,0,0,3.78L37.5,35.36a2.66,2.66,0,0,0,3.78,0l1.65-1.65a2.68,2.68,0,0,0,0-3.78L32.15,19.16a2.67,2.67,0,0,0-1.85-.78"/></clipPath><linearGradient id="linear-gradient" x1="34.83" y1="-2.18" x2="34.83" y2="96.43" gradientUnits="userSpaceOnUse"><stop offset="0" stop-color="#f8d424"/><stop offset="0.13" stop-color="#f8d424"/><stop offset="0.76" stop-color="#d44739"/><stop offset="1" stop-color="#d44739"/></linearGradient><clipPath id="clip-path-2"><path class="cls-1" d="M86.83,20.58h2.34a2.68,2.68,0,0,0,2.67-2.67V2.67A2.68,2.68,0,0,0,89.17,0H86.83a2.68,2.68,0,0,0-2.67,2.67V17.91a2.68,2.68,0,0,0,2.67,2.67"/></clipPath><linearGradient id="linear-gradient-2" x1="88" y1="-1.16" x2="88" y2="94.87" xlink:href="#linear-gradient"/><clipPath id="clip-path-3"><path class="cls-1" d="M143.24,20.63,132.47,31.4a2.66,2.66,0,0,0,0,3.78l1.64,1.65a2.69,2.69,0,0,0,3.79,0l10.77-10.77a2.69,2.69,0,0,0,0-3.79L147,20.63a2.66,2.66,0,0,0-3.78,0"/></clipPath><linearGradient id="linear-gradient-3" x1="140.57" y1="-2.24" x2="140.57" y2="96.4" xlink:href="#linear-gradient"/><clipPath id="clip-path-4"><path class="cls-1" d="M33.7,66.51a51.68,51.68,0,0,1,8.91-.79,49.14,49.14,0,0,1,90.9.13c.93,0,1.9,0,3,.11a51.76,51.76,0,0,1,5.88.63A57.23,57.23,0,0,0,33.7,66.51Z"/></clipPath><linearGradient id="linear-gradient-4" x1="88.05" y1="-1.16" x2="88.05" y2="94.87" xlink:href="#linear-gradient"/><clipPath id="clip-path-5"><path class="cls-1" d="M119.53,78.89V61.63L88,45.56,56.47,61.63V78.78a48.12,48.12,0,0,1,8.09,3.07V66.59L88,54.64l23.44,12v15.5c1.19-.55,2.38-1.08,3.56-1.56l1.78-.8.36-.12c.76-.25,1.55-.49,2.39-.72"/></clipPath><linearGradient id="linear-gradient-5" x1="88" y1="64.08" x2="88" y2="77.43" gradientUnits="userSpaceOnUse"><stop offset="0" stop-color="#ada39b"/><stop offset="0.13" stop-color="#ada39b"/><stop offset="0.76" stop-color="#918b83"/><stop offset="1" stop-color="#918b83"/></linearGradient><clipPath id="clip-path-6"><path class="cls-1" d="M110.7,89.59C109.5,96,106.46,104,98.83,108.3c0,0-1.17,5.74-9.43,11.47l5.31-1.27c17.24-4.12,24-19.92,24.76-34.23,0,0-5.85,2.61-8.77,5.32"/></clipPath><linearGradient id="linear-gradient-6" x1="104.43" y1="103.87" x2="104.43" y2="89.6" gradientUnits="userSpaceOnUse"><stop offset="0" stop-color="#74ac4e"/><stop offset="0.15" stop-color="#74ac4e"/><stop offset="0.81" stop-color="#5d8b42"/><stop offset="1" stop-color="#5d8b42"/></linearGradient><clipPath id="clip-path-7"><path class="cls-1" d="M133.38,73.4h-.28a43.31,43.31,0,0,0-9.27,1,10.36,10.36,0,0,0-1.45.33l-.11,0c-.92.24-1.83.5-2.74.8l-1.57.71c-2.08.83-3.92,1.69-5.3,2.39l-1.22.55c-.5.29-1,.58-1.46.89h0A43.28,43.28,0,0,0,100.75,88h0a43.63,43.63,0,0,0-11,26.35l-.33,5.45c8.26-5.73,9.43-11.47,9.43-11.47A35.68,35.68,0,0,1,110.7,89.59c2.92-2.71,8.77-5.32,8.77-5.32a35.1,35.1,0,0,1,17.6-2.57s1-6.56,7.41-6.94h0a38,38,0,0,0-8.39-1.26c-.9-.06-1.81-.1-2.71-.1"/></clipPath><linearGradient id="linear-gradient-7" x1="127.75" y1="96.59" x2="139.44" y2="96.59" xlink:href="#linear-gradient-6"/><clipPath id="clip-path-8"><path class="cls-1" d="M31.51,74.76c7.21,1.47,7.42,6.94,7.42,6.94a35.21,35.21,0,0,1,17.6,2.57,24.68,24.68,0,0,1,8.77,5.32A35.68,35.68,0,0,1,77.17,108.3c2.57,8.83,9.43,11.47,9.43,11.47l-.33-5.45a44,44,0,0,0-1.12-7.46h0L85,106.4A43.79,43.79,0,0,0,64.56,79.25a41.84,41.84,0,0,0-21.81-6,39.61,39.61,0,0,0-11.24,1.49"/></clipPath><linearGradient id="linear-gradient-8" x1="57.87" y1="96.84" x2="44.94" y2="100.34" xlink:href="#linear-gradient-6"/><clipPath id="clip-path-9"><path class="cls-1" d="M145.25,84.49v-.11a59.45,59.45,0,0,0-.42-6.68l-.35-2.94c-6.44.38-7.41,6.94-7.41,6.94.06.94.08,1.86.08,2.79a49.32,49.32,0,0,1-39.1,48.12,49.9,49.9,0,0,1-10,1h0a49.9,49.9,0,0,1-10-1,49.32,49.32,0,0,1-39.1-48.12c0-.93,0-1.85.08-2.79,0,0-.21-5.47-7.42-6.94l-.34,2.94a56.87,56.87,0,0,0-.42,6.79,57.25,57.25,0,0,0,114.5,0"/></clipPath><linearGradient id="linear-gradient-9" x1="30.75" y1="108.25" x2="145.25" y2="108.25" gradientUnits="userSpaceOnUse"><stop offset="0" stop-color="#38aba3"/><stop offset="0.11" stop-color="#38aba3"/><stop offset="0.84" stop-color="#44aba2"/><stop offset="1" stop-color="#44aba2"/></linearGradient><clipPath id="clip-path-10"><path class="cls-1" d="M81.29,118.5l5.31,1.27s-6.86-2.64-9.43-11.47C69.54,104,66.5,96,65.3,89.59a24.68,24.68,0,0,0-8.77-5.32c.73,14.31,7.52,30.11,24.76,34.23"/></clipPath><linearGradient id="linear-gradient-10" x1="71.57" y1="96.08" x2="71.57" y2="86.62" xlink:href="#linear-gradient-6"/></defs><g id="Layer_2" data-name="Layer 2"><g id="Layer_1-2" data-name="Layer 1"><rect class="cls-2" x="84.16" y="75.6" width="7.68" height="12.37"/><g class="cls-3"><rect class="cls-4" x="25.68" y="18.38" width="18.29" height="18.03"/></g><g class="cls-5"><rect class="cls-6" x="84.16" width="7.68" height="20.58"/></g><g class="cls-7"><rect class="cls-8" x="131.42" y="19.84" width="18.29" height="18.03"/></g><g class="cls-9"><rect class="cls-10" x="33.7" y="27.24" width="108.71" height="39.35"/></g><g class="cls-11"><rect class="cls-12" x="56.47" y="45.56" width="63.06" height="36.53"/></g><g class="cls-13"><rect class="cls-14" x="89.4" y="84.27" width="30.07" height="35.5"/></g><g class="cls-15"><rect class="cls-16" x="89.4" y="73.4" width="55.08" height="46.38"/></g><g class="cls-17"><rect class="cls-18" x="31.51" y="73.27" width="55.09" height="46.5"/></g><g class="cls-19"><rect class="cls-20" x="30.75" y="74.76" width="114.5" height="66.97"/></g><g class="cls-21"><rect class="cls-22" x="56.53" y="84.27" width="30.07" height="35.5"/></g><path class="cls-23" d="M3.76,210.76v5.67H2.06v-17H9.67c7.62,0,7.62,11.33,0,11.36Zm0-1.61H9.67c5.33,0,5.33-8.15,0-8.15H3.76Z"/><path class="cls-23" d="M38.63,216.43H36.41l-5.64-6.28H26.36v6.28h-1.7v-17H32.3c3.8,0,5.62,2.53,5.64,5.4,0,2.65-1.53,5.06-5.13,5.23ZM26.36,201v7.54H32.2c2.73,0,4-1.6,4-3.74A3.59,3.59,0,0,0,32.3,201Z"/><path class="cls-23" d="M64.12,208c0,4.45-2.84,8.78-8.61,8.78s-8.64-4.33-8.64-8.8c0-4.8,3.12-8.84,8.64-8.84,5.77,0,8.64,4.31,8.61,8.86m-8.61,7.18c4.65,0,6.89-3.53,6.91-7.18,0-3.82-2.26-7.23-6.91-7.25s-7,3.24-6.93,7.25C48.62,211.68,50.86,215.14,55.51,215.14Z"/><path class="cls-23" d="M85.94,199.4v10.39c0,4.25-2.87,6.86-6.93,6.86S72.1,214,72.1,209.84h1.7a5.22,5.22,0,1,0,10.44-.05V201H78V199.4Z"/><polygon class="cls-23" points="108.76 216.43 96.55 216.43 96.55 199.4 108.54 199.4 108.54 201 98.25 201 98.25 207.11 108.08 207.11 108.08 208.69 98.25 208.69 98.25 214.82 108.76 214.82 108.76 216.43"/><path class="cls-23" d="M132.34,214.12a8.69,8.69,0,0,1-6.21,2.57c-5.88,0-8.83-3.94-8.85-8.68s2.94-8.86,8.85-8.86a7.85,7.85,0,0,1,6,2.56l-1,1a7.06,7.06,0,0,0-5-2c-4.74,0-7.15,3.5-7.15,7.27,0,4,2.41,7.13,7.15,7.13a7.34,7.34,0,0,0,5.11-2.09Z"/><polygon class="cls-23" points="145.72 201 139.71 201 139.71 199.4 153.43 199.4 153.43 201 147.42 201 147.42 216.43 145.72 216.43 145.72 201"/><path class="cls-23" d="M172.89,202.9c-1-1.6-3.09-2.14-4.89-2.17-2.09,0-4.79.61-4.79,3.12,0,2,2.19,2.53,4.84,3,3.36.59,6.77,1.34,6.77,5,0,3.85-3.73,4.89-6.82,4.89-2.87,0-5.79-1-7.1-3.77l1.48-.8a6.14,6.14,0,0,0,5.62,2.95c2.1,0,5.09-.56,5.09-3.29,0-2.31-2.56-2.89-5.21-3.36-3.21-.56-6.37-1.26-6.37-4.57,0-3.58,3.6-4.72,6.47-4.72,2.33,0,4.84.63,6.35,3Z"/><path class="cls-23" d="M19.9,171.54a10.88,10.88,0,0,1,3.35,2.15,10,10,0,0,1,2.25,3.18,9.33,9.33,0,0,1,.83,3.88,9.58,9.58,0,0,1-.83,3.95,9.9,9.9,0,0,1-2.25,3.21,10.88,10.88,0,0,1-3.35,2.15,10.64,10.64,0,0,1-4.08.8H8.66a11.64,11.64,0,0,1-4.33-.77,8.06,8.06,0,0,1-3-1.93,3.72,3.72,0,0,1-1.07-2.5A3.33,3.33,0,0,1,1.6,183.1l4-1.85a2.74,2.74,0,0,0-1.36,3.5,6.61,6.61,0,0,0,2,1.28,6.13,6.13,0,0,0,2.43.48h7.11v0a6.41,6.41,0,0,0,2.38-.45,6.5,6.5,0,0,0,2-1.23,5.69,5.69,0,0,0,1.33-1.8,5.53,5.53,0,0,0,0-4.46,5.36,5.36,0,0,0-1.33-1.77,6.63,6.63,0,0,0-2-1.2,6.23,6.23,0,0,0-2.38-.46H9.66a9.41,9.41,0,0,1-3.75-.75,9.7,9.7,0,0,1-5.16-5.15A9.32,9.32,0,0,1,0,165.48a9.44,9.44,0,0,1,.75-3.75,9.24,9.24,0,0,1,2.08-3,10.26,10.26,0,0,1,3.08-2.08,9.09,9.09,0,0,1,3.75-.78h8a7.59,7.59,0,0,1,2.15.15,13.43,13.43,0,0,1,2.51.78A11.08,11.08,0,0,1,24.55,158a5.53,5.53,0,0,1,1.53,1.63,2.46,2.46,0,0,1,.25,1.88,3.88,3.88,0,0,1-1.6,2l-4,1.8a2.21,2.21,0,0,0,1.35-1.4,2.71,2.71,0,0,0-.05-2v0a6,6,0,0,0-4.45-1.8v0h-8a5.26,5.26,0,1,0,0,10.51h6.16a10.64,10.64,0,0,1,4.08.8"/><path class="cls-23" d="M59.09,156.6a2.51,2.51,0,0,1,1.83-.78h4a2.38,2.38,0,0,0-1.65.88,2.71,2.71,0,0,0-.65,1.78v19.27a12.61,12.61,0,0,1-1,5.08,13.58,13.58,0,0,1-2.8,4.18,13.24,13.24,0,0,1-4.15,2.83A13.15,13.15,0,0,1,40.22,187a13.4,13.4,0,0,1-2.8-4.18,12.61,12.61,0,0,1-1-5.08V158.48a2.71,2.71,0,0,0-.65-1.78,2.42,2.42,0,0,0-1.65-.88h4a2.65,2.65,0,0,1,2.65,2.66v19.27a8.74,8.74,0,0,0,2.56,6.2,8.52,8.52,0,0,0,2.8,1.88,8.87,8.87,0,0,0,6.81,0,8.52,8.52,0,0,0,2.8-1.88,8.67,8.67,0,0,0,2.55-6.2V158.48a2.55,2.55,0,0,1,.78-1.88"/><path class="cls-23" d="M98,190a4.31,4.31,0,0,0,2.05.85H96a4.81,4.81,0,0,1-1.25-.2,7.11,7.11,0,0,1-1.4-.57,8.44,8.44,0,0,1-1.27-.83,2.66,2.66,0,0,1-.83-1v0l-2.45-5-2.11-4.3-1.8-3.81H80.19a.8.8,0,0,0-.9.91v12.26a2.62,2.62,0,0,1-.73,1.83,2.47,2.47,0,0,1-1.88.77h-4.1a2.61,2.61,0,0,0,2.35-2.6V158.48a2.63,2.63,0,0,0-.67-1.78,2.49,2.49,0,0,0-1.68-.88H89a9.13,9.13,0,0,1,3.75.78,9.88,9.88,0,0,1,3,2.08,9.6,9.6,0,0,1,2.16,10.26A9.64,9.64,0,0,1,93.38,174,9.07,9.07,0,0,1,90,175l1.9,3.86,4.56,9.31v0A4.34,4.34,0,0,0,98,190m-7-19.67a5,5,0,0,0,1.65-1.13,5.86,5.86,0,0,0,1.13-1.67,5.24,5.24,0,0,0,0-4.11,6,6,0,0,0-1.13-1.68A4.93,4.93,0,0,0,91,160.63a5.17,5.17,0,0,0-2-.4H80.19c-.6,0-.9.28-.9.85v8.76a.8.8,0,0,0,.9.9H89A5.17,5.17,0,0,0,91,170.34Z"/><path class="cls-23" d="M133.75,156.25a2.24,2.24,0,0,1,1.35-.43h6.55a5.28,5.28,0,0,0-2.25.93,14.4,14.4,0,0,0-3,3.08L125.64,174v14.22a2.57,2.57,0,0,1-.78,1.88,2.52,2.52,0,0,1-1.83.77h-4.1a2.54,2.54,0,0,0,1.68-.85,2.59,2.59,0,0,0,.67-1.8V173.89l-10.71-14.06a13.73,13.73,0,0,0-3-3.08,5.58,5.58,0,0,0-2.31-.93h6.61a2.37,2.37,0,0,1,1.38.43,2.62,2.62,0,0,1,.92,1l9.31,12.27,9.42-12.27a2.73,2.73,0,0,1,.9-1"/><path class="cls-23" d="M173.77,190a2.49,2.49,0,0,0,1.62.85h-4a2.58,2.58,0,0,1-1.88-.77,2.51,2.51,0,0,1-.78-1.83V177.75H151.17v10.51a2.62,2.62,0,0,1-.73,1.83,2.47,2.47,0,0,1-1.88.77h-4.1a2.51,2.51,0,0,0,1.67-.85,2.49,2.49,0,0,0,.68-1.75V169a12.75,12.75,0,0,1,1-5.11,13,13,0,0,1,2.83-4.2,13.27,13.27,0,0,1,4.17-2.83,12.78,12.78,0,0,1,5.08-1,13.06,13.06,0,0,1,5.16,1,12.88,12.88,0,0,1,4.18,2.83,13.43,13.43,0,0,1,2.8,4.2,12.75,12.75,0,0,1,1,5.11v19.27a2.49,2.49,0,0,0,.68,1.75m-5.09-21a8.73,8.73,0,0,0-2.52-6.24,8.73,8.73,0,0,0-2.78-1.85,8.82,8.82,0,0,0-3.46-.67,8.67,8.67,0,0,0-3.4.67,8.93,8.93,0,0,0-2.8,1.85,8.59,8.59,0,0,0-1.88,2.78,8.82,8.82,0,0,0-.67,3.46v4.35h17.51Z"/></g></g></svg>