<svg width="176" height="217" viewBox="0 0 176 217" fill="none" xmlns="http://www.w3.org/2000/svg">
<g clip-path="url(#clip0_68_2)">
<path d="M91.8401 75.6H84.1602V87.97H91.8401V75.6Z" fill="white"/>
<mask id="mask0_68_2" style="mask-type:luminance" maskUnits="userSpaceOnUse" x="25" y="18" width="19" height="19">
<path d="M30.3004 18.38H30.2304C29.5331 18.391 28.8669 18.6704 28.3704 19.16L26.7204 20.81C26.2208 21.3122 25.9404 21.9917 25.9404 22.7C25.9404 23.4083 26.2208 24.0878 26.7204 24.59L37.5004 35.36C37.7477 35.6097 38.0421 35.808 38.3665 35.9433C38.6909 36.0786 39.0389 36.1482 39.3904 36.1482C39.7418 36.1482 40.0898 36.0786 40.4142 35.9433C40.7386 35.808 41.033 35.6097 41.2803 35.36L42.9304 33.71C43.4299 33.2078 43.7103 32.5283 43.7103 31.82C43.7103 31.1117 43.4299 30.4322 42.9304 29.93L32.1504 19.16C31.6586 18.6692 30.995 18.3894 30.3004 18.38Z" fill="white"/>
</mask>
<g mask="url(#mask0_68_2)">
<path d="M43.9707 18.38H25.6807V36.41H43.9707V18.38Z" fill="white"/>
</g>
<mask id="mask1_68_2" style="mask-type:luminance" maskUnits="userSpaceOnUse" x="84" y="0" width="8" height="21">
<path d="M86.8302 20.58H89.1702C89.8775 20.5774 90.5551 20.2952 91.0552 19.7951C91.5554 19.2949 91.8375 18.6173 91.8401 17.91V2.67C91.8375 1.96268 91.5554 1.28509 91.0552 0.784935C90.5551 0.284783 89.8775 0.00263436 89.1702 0L86.8302 0C86.1228 0.00263436 85.4452 0.284783 84.9451 0.784935C84.4449 1.28509 84.1628 1.96268 84.1602 2.67V17.91C84.1628 18.6173 84.4449 19.2949 84.9451 19.7951C85.4452 20.2952 86.1228 20.5774 86.8302 20.58Z" fill="white"/>
</mask>
<g mask="url(#mask1_68_2)">
<path d="M91.8401 0H84.1602V20.58H91.8401V0Z" fill="white"/>
</g>
<mask id="mask2_68_2" style="mask-type:luminance" maskUnits="userSpaceOnUse" x="131" y="19" width="19" height="19">
<path d="M143.238 20.63L132.468 31.4C132.218 31.6474 132.02 31.9417 131.885 32.2661C131.749 32.5905 131.68 32.9385 131.68 33.29C131.68 33.6415 131.749 33.9895 131.885 34.3139C132.02 34.6383 132.218 34.9327 132.468 35.18L134.108 36.83C134.612 37.3302 135.293 37.6108 136.003 37.6108C136.713 37.6108 137.394 37.3302 137.898 36.83L148.668 26.06C149.168 25.5561 149.449 24.875 149.449 24.165C149.449 23.4551 149.168 22.7739 148.668 22.27L146.998 20.63C146.751 20.3803 146.456 20.182 146.132 20.0468C145.807 19.9115 145.459 19.8418 145.108 19.8418C144.756 19.8418 144.408 19.9115 144.084 20.0468C143.76 20.182 143.465 20.3803 143.218 20.63" fill="white"/>
</mask>
<g mask="url(#mask2_68_2)">
<path d="M149.708 19.8401H131.418V37.8701H149.708V19.8401Z" fill="white"/>
</g>
<mask id="mask3_68_2" style="mask-type:luminance" maskUnits="userSpaceOnUse" x="33" y="27" width="110" height="40">
<path d="M33.7002 66.51C36.6418 65.9897 39.6229 65.7253 42.6102 65.72C46.3267 56.7152 52.6358 49.0183 60.736 43.6068C68.8363 38.1953 78.3622 35.3135 88.1038 35.3275C97.8453 35.3414 107.363 38.2504 115.448 43.685C123.532 49.1197 129.819 56.8346 133.51 65.85C134.44 65.85 135.41 65.85 136.51 65.96C138.481 66.0578 140.444 66.2681 142.39 66.59C138.624 55.1544 131.348 45.1978 121.596 38.1369C111.844 31.0759 100.114 27.2702 88.0741 27.2614C76.0344 27.2525 64.2986 31.0409 54.5364 38.0875C44.7742 45.1341 37.483 55.08 33.7002 66.51Z" fill="white"/>
</mask>
<g mask="url(#mask3_68_2)">
<path d="M142.41 27.24H33.7002V66.59H142.41V27.24Z" fill="white"/>
</g>
<mask id="mask4_68_2" style="mask-type:luminance" maskUnits="userSpaceOnUse" x="56" y="45" width="64" height="38">
<path d="M119.53 78.8901V61.6301L87.9997 45.5601L56.4697 61.6301V78.7801C59.2531 79.5584 61.9607 80.5858 64.5597 81.8501V66.5901L87.9997 54.6401L111.44 66.6401V82.1401C112.63 81.5901 113.82 81.0601 115 80.5801L116.78 79.7801L117.14 79.6601C117.9 79.4101 118.69 79.1701 119.53 78.9401" fill="white"/>
</mask>
<g mask="url(#mask4_68_2)">
<path d="M119.53 45.5601H56.4697V82.0901H119.53V45.5601Z" fill="white"/>
</g>
<mask id="mask5_68_2" style="mask-type:luminance" maskUnits="userSpaceOnUse" x="89" y="84" width="31" height="36">
<path d="M110.7 89.59C109.5 96 106.46 104 98.8304 108.3C98.8304 108.3 97.6604 114.04 89.4004 119.77L94.7104 118.5C111.95 114.38 118.71 98.58 119.47 84.27C119.47 84.27 113.62 86.88 110.7 89.59Z" fill="white"/>
</mask>
<g mask="url(#mask5_68_2)">
<path d="M119.47 84.27H89.4004V119.77H119.47V84.27Z" fill="white"/>
</g>
<mask id="mask6_68_2" style="mask-type:luminance" maskUnits="userSpaceOnUse" x="89" y="73" width="56" height="47">
<path d="M133.38 73.4H133.1C129.983 73.3988 126.875 73.7341 123.83 74.4C123.339 74.4752 122.855 74.5854 122.38 74.73H122.27C121.35 74.97 120.44 75.23 119.53 75.53L117.96 76.24C115.88 77.07 114.04 77.93 112.66 78.63L111.44 79.18C110.94 79.47 110.44 79.76 109.98 80.07C106.545 82.2655 103.438 84.9352 100.75 88C94.2315 95.3009 90.3573 104.582 89.7499 114.35L89.4199 119.8C97.6799 114.07 98.8499 108.33 98.8499 108.33C100.71 100.983 104.86 94.4197 110.7 89.59C113.62 86.88 119.47 84.27 119.47 84.27C125.019 81.9165 131.08 81.0314 137.07 81.7C137.07 81.7 138.07 75.14 144.48 74.76C141.739 74.0282 138.925 73.6055 136.09 73.5C135.19 73.44 134.28 73.4 133.38 73.4Z" fill="white"/>
</mask>
<g mask="url(#mask6_68_2)">
<path d="M144.48 73.4H89.4004V119.78H144.48V73.4Z" fill="white"/>
</g>
<mask id="mask7_68_2" style="mask-type:luminance" maskUnits="userSpaceOnUse" x="31" y="73" width="56" height="47">
<path d="M31.5098 74.76C38.7198 76.23 38.9298 81.7 38.9298 81.7C44.9197 81.0363 50.9797 81.9212 56.5298 84.27C59.7934 85.4095 62.7813 87.222 65.2998 89.59C71.1418 94.4089 75.2989 100.962 77.1698 108.3C79.7398 117.13 86.5998 119.77 86.5998 119.77L86.2698 114.32C86.1107 111.806 85.736 109.31 85.1498 106.86L84.9998 106.4C83.5738 100.741 81.0311 95.4237 77.5209 90.7613C74.0108 86.0988 69.6041 82.185 64.5598 79.25C57.9785 75.2854 50.4328 73.2095 42.7498 73.25C38.951 73.205 35.1656 73.7068 31.5098 74.74" fill="white"/>
</mask>
<g mask="url(#mask7_68_2)">
<path d="M86.5998 73.27H31.5098V119.77H86.5998V73.27Z" fill="white"/>
</g>
<mask id="mask8_68_2" style="mask-type:luminance" maskUnits="userSpaceOnUse" x="30" y="74" width="116" height="68">
<path d="M145.25 84.49V84.38C145.235 82.1472 145.095 79.917 144.83 77.7L144.48 74.76C138.04 75.14 137.07 81.7 137.07 81.7C137.13 82.64 137.15 83.56 137.15 84.49C137.12 95.7734 133.222 106.705 126.107 115.463C118.991 124.22 109.088 130.272 98.0496 132.61C94.7584 133.279 91.4081 133.614 88.0496 133.61C84.6911 133.614 81.3408 133.279 78.0496 132.61C67.0111 130.272 57.108 124.22 49.9925 115.463C42.8769 106.705 38.9792 95.7734 38.9496 84.49C38.9496 83.56 38.9496 82.64 39.0296 81.7C39.0296 81.7 38.8196 76.23 31.6096 74.76L31.2696 77.7C30.9942 79.9529 30.854 82.2203 30.8496 84.49C30.8496 99.6736 36.8813 114.235 47.6177 124.972C58.3542 135.708 72.916 141.74 88.0996 141.74C103.283 141.74 117.845 135.708 128.581 124.972C139.318 114.235 145.35 99.6736 145.35 84.49" fill="white"/>
</mask>
<g mask="url(#mask8_68_2)">
<path d="M145.5 75H31V141.97H145.5V75Z" fill="white"/>
</g>
<mask id="mask9_68_2" style="mask-type:luminance" maskUnits="userSpaceOnUse" x="56" y="84" width="31" height="36">
<path d="M81.2893 118.5L86.5993 119.77C86.5993 119.77 79.7393 117.13 77.1693 108.3C69.5393 104 66.4993 96 65.2993 89.59C62.7808 87.2221 59.793 85.4096 56.5293 84.27C57.2593 98.58 64.0493 114.38 81.2893 118.5Z" fill="white"/>
</mask>
<g mask="url(#mask9_68_2)">
<path d="M86.5993 84.27H56.5293V119.77H86.5993V84.27Z" fill="white"/>
</g>
<path d="M3.75957 210.76V216.43H2.05957V199.43H9.66957C17.2896 199.43 17.2896 210.76 9.66957 210.79L3.75957 210.76ZM3.75957 209.15H9.66957C14.9996 209.15 14.9996 201 9.66957 201H3.75957V209.15Z" fill="white"/>
<path d="M38.6292 216.43H36.4092L30.7692 210.15H26.3592V216.43H24.6592V199.43H32.2992C36.0992 199.43 37.9192 201.96 37.9392 204.83C37.9392 207.48 36.4092 209.89 32.8092 210.06L38.6292 216.43ZM26.3592 201V208.54H32.1992C34.9292 208.54 36.1992 206.94 36.1992 204.8C36.2314 204.284 36.1519 203.767 35.9659 203.285C35.7799 202.802 35.4918 202.366 35.1215 202.005C34.7512 201.644 34.3073 201.367 33.8202 201.194C33.333 201.02 32.8142 200.954 32.2992 201H26.3592Z" fill="white"/>
<path d="M64.1191 208C64.1191 212.45 61.2791 216.78 55.5091 216.78C49.7391 216.78 46.8691 212.45 46.8691 207.98C46.8691 203.18 49.9891 199.14 55.5091 199.14C61.2791 199.14 64.1491 203.45 64.1191 208ZM55.5091 215.18C60.1591 215.18 62.3991 211.65 62.4191 208C62.4191 204.18 60.1591 200.77 55.5091 200.75C50.8591 200.73 48.5091 203.99 48.5791 208C48.6191 211.68 50.8591 215.14 55.5091 215.14V215.18Z" fill="white"/>
<path d="M85.9396 199.4V209.79C85.9396 214.04 83.0696 216.65 79.0096 216.65C74.9496 216.65 72.0996 214 72.0996 209.84H73.7996C73.8029 210.526 73.9412 211.204 74.2065 211.836C74.4719 212.468 74.8591 213.041 75.3462 213.524C75.8332 214.006 76.4105 214.388 77.0451 214.647C77.6797 214.907 78.3591 215.038 79.0446 215.035C79.7301 215.032 80.4083 214.893 81.0403 214.628C81.6724 214.363 82.246 213.975 82.7284 213.488C83.2108 213.001 83.5925 212.424 83.8518 211.79C84.1111 211.155 84.2429 210.476 84.2396 209.79V201H77.9996V199.4H85.9396Z" fill="white"/>
<path d="M108.759 216.43H96.5488V199.4H108.539V201H98.2488V207.11H108.079V208.69H98.2488V214.82H108.759V216.43Z" fill="white"/>
<path d="M132.339 214.12C131.527 214.939 130.559 215.588 129.493 216.03C128.427 216.471 127.283 216.695 126.129 216.69C120.249 216.69 117.299 212.75 117.279 208.01C117.259 203.27 120.219 199.15 126.129 199.15C127.255 199.122 128.373 199.336 129.408 199.777C130.443 200.219 131.371 200.878 132.129 201.71L131.129 202.71C129.792 201.409 127.995 200.69 126.129 200.71C121.389 200.71 118.979 204.21 118.979 207.98C118.979 211.98 121.389 215.11 126.129 215.11C128.04 215.105 129.873 214.355 131.239 213.02L132.339 214.12Z" fill="white"/>
<path d="M145.719 201H139.709V199.4H153.429V201H147.419V216.43H145.719V201Z" fill="white"/>
<path d="M172.89 202.9C171.89 201.3 169.8 200.76 168 200.73C165.91 200.73 163.21 201.34 163.21 203.85C163.21 205.85 165.4 206.38 168.05 206.85C171.41 207.44 174.82 208.19 174.82 211.85C174.82 215.7 171.09 216.74 168 216.74C165.13 216.74 162.21 215.74 160.9 212.97L162.38 212.17C162.96 213.127 163.789 213.908 164.78 214.428C165.77 214.947 166.884 215.187 168 215.12C170.1 215.12 173.09 214.56 173.09 211.83C173.09 209.52 170.53 208.94 167.88 208.47C164.67 207.91 161.51 207.21 161.51 203.9C161.51 200.32 165.11 199.18 167.98 199.18C170.31 199.18 172.82 199.81 174.33 202.18L172.89 202.9Z" fill="white"/>
<path d="M19.8995 171.54C21.1389 172.045 22.2746 172.773 23.2495 173.69C24.2007 174.592 24.9652 175.673 25.4995 176.87C26.0512 178.089 26.3342 179.412 26.3295 180.75C26.3365 182.111 26.0536 183.457 25.4995 184.7C24.971 185.909 24.206 187.001 23.2495 187.91C22.2746 188.827 21.1389 189.555 19.8995 190.06C18.6054 190.592 17.2189 190.864 15.8195 190.86H8.65952C7.18037 190.881 5.71081 190.619 4.32952 190.09C3.19792 189.679 2.17281 189.019 1.32952 188.16C0.670129 187.492 0.2879 186.598 0.259516 185.66C0.276246 185.16 0.4054 184.67 0.637384 184.227C0.869367 183.784 1.19822 183.399 1.59952 183.1L5.59952 181.25C4.96979 181.551 4.47845 182.08 4.22572 182.73C3.973 183.381 3.97793 184.103 4.23952 184.75C4.82345 185.294 5.50105 185.728 6.23952 186.03C7.00842 186.354 7.83529 186.517 8.66952 186.51H15.7795C16.5942 186.513 17.402 186.36 18.1595 186.06C18.8953 185.775 19.573 185.358 20.1595 184.83C20.7176 184.324 21.1697 183.712 21.4895 183.03C21.7992 182.327 21.9591 181.568 21.9591 180.8C21.9591 180.032 21.7992 179.273 21.4895 178.57C21.1742 177.894 20.7212 177.291 20.1595 176.8C19.569 176.285 18.8919 175.879 18.1595 175.6C17.404 175.292 16.5953 175.136 15.7795 175.14H9.65952C8.37136 175.149 7.095 174.894 5.90952 174.39C3.5853 173.41 1.73444 171.562 0.749516 169.24C0.241633 168.052 -0.0137701 166.772 -0.000483559 165.48C-0.00894914 164.192 0.246287 162.916 0.749516 161.73C1.23645 160.602 1.94358 159.582 2.82952 158.73C3.721 157.855 4.76479 157.15 5.90952 156.65C7.08993 156.127 8.3683 155.861 9.65952 155.87H17.6595C18.3797 155.817 19.1036 155.868 19.8095 156.02C20.6697 156.197 21.5104 156.459 22.3195 156.8C23.1063 157.113 23.8545 157.516 24.5495 158C25.1652 158.433 25.6858 158.988 26.0795 159.63C26.2435 159.911 26.3501 160.222 26.393 160.545C26.4359 160.868 26.4143 161.196 26.3295 161.51C26.0379 162.339 25.4739 163.044 24.7295 163.51L20.7295 165.31C21.0464 165.195 21.3328 165.009 21.5668 164.766C21.8008 164.524 21.9762 164.231 22.0795 163.91C22.3185 163.261 22.3007 162.546 22.0295 161.91C21.4516 161.32 20.7581 160.855 19.9924 160.546C19.2266 160.236 18.4052 160.088 17.5795 160.11H9.57952C8.87013 160.079 8.16183 160.192 7.49729 160.442C6.83274 160.692 6.22573 161.074 5.71281 161.565C5.1999 162.056 4.79171 162.646 4.51285 163.299C4.23399 163.952 4.09022 164.655 4.09022 165.365C4.09022 166.075 4.23399 166.778 4.51285 167.431C4.79171 168.084 5.1999 168.674 5.71281 169.165C6.22573 169.656 6.83274 170.038 7.49729 170.288C8.16183 170.538 8.87013 170.651 9.57952 170.62H15.7395C17.1389 170.616 18.5254 170.888 19.8195 171.42" fill="white"/>
<path d="M59.0891 156.6C59.3249 156.352 59.6089 156.155 59.9236 156.021C60.2383 155.887 60.5771 155.818 60.9191 155.82H64.9191C64.5989 155.848 64.2877 155.94 64.0041 156.091C63.7205 156.242 63.4705 156.449 63.2691 156.7C62.8453 157.196 62.6145 157.828 62.6191 158.48V177.75C62.6408 179.494 62.3003 181.224 61.6191 182.83C60.9543 184.386 60.0047 185.803 58.8191 187.01C57.6291 188.209 56.2204 189.17 54.6691 189.84C52.2521 190.863 49.5845 191.139 47.0093 190.632C44.4342 190.126 42.0693 188.861 40.2191 187C39.0303 185.796 38.0802 184.378 37.4191 182.82C36.738 181.214 36.3975 179.484 36.4191 177.74V158.48C36.4237 157.828 36.193 157.196 35.7691 156.7C35.5662 156.451 35.3158 156.245 35.0326 156.094C34.7493 155.943 34.4388 155.85 34.1191 155.82H38.1191C38.468 155.82 38.8134 155.889 39.1356 156.023C39.4577 156.156 39.7503 156.353 39.9965 156.6C40.2427 156.847 40.4377 157.14 40.5703 157.463C40.7029 157.785 40.7705 158.131 40.7691 158.48V177.75C40.7665 178.901 40.9914 180.041 41.4307 181.105C41.87 182.169 42.5152 183.136 43.3291 183.95C44.1279 184.757 45.0799 185.396 46.1291 185.83C47.2083 186.279 48.3655 186.51 49.5341 186.51C50.7028 186.51 51.86 186.279 52.9391 185.83C53.9884 185.396 54.9404 184.757 55.7391 183.95C56.5545 183.138 57.1998 182.171 57.6376 181.106C58.0754 180.042 58.2969 178.901 58.2891 177.75V158.48C58.2831 158.13 58.3492 157.782 58.4834 157.459C58.6176 157.135 58.817 156.843 59.0691 156.6" fill="white"/>
<path d="M98.0001 190C98.5975 190.457 99.3043 190.75 100.05 190.85H96.0001C95.5764 190.839 95.1561 190.771 94.7501 190.65C94.2645 190.51 93.7952 190.319 93.3501 190.08C92.9027 189.842 92.4776 189.564 92.0801 189.25C91.725 188.99 91.4398 188.647 91.2501 188.25L88.8001 183.25L86.6901 178.95L84.8901 175.14H80.1901C80.067 175.123 79.9418 175.135 79.8242 175.175C79.7066 175.215 79.5999 175.282 79.5126 175.37C79.4253 175.458 79.3597 175.566 79.3211 175.684C79.2825 175.802 79.2719 175.927 79.2901 176.05V188.31C79.2941 188.992 79.0322 189.648 78.5601 190.14C78.3192 190.394 78.027 190.594 77.7029 190.727C77.3788 190.86 77.0301 190.922 76.6801 190.91H72.5801C73.2246 190.845 73.8221 190.544 74.2564 190.063C74.6907 189.583 74.9308 188.958 74.9301 188.31V158.48C74.9366 157.824 74.6976 157.189 74.2601 156.7C73.8381 156.197 73.2342 155.88 72.5801 155.82H89.0001C90.2912 155.812 91.5693 156.078 92.7501 156.6C93.8706 157.101 94.888 157.806 95.7501 158.68C97.0661 159.997 97.971 161.667 98.3545 163.489C98.738 165.311 98.5836 167.205 97.9101 168.94C97.0639 171.12 95.4539 172.919 93.3801 174C92.3296 174.551 91.1813 174.891 90.0001 175L91.9001 178.86L96.4601 188.17C96.7919 188.912 97.3255 189.546 98.0001 190ZM91.0001 170.33C91.6206 170.068 92.1818 169.684 92.6501 169.2C93.1204 168.713 93.5027 168.148 93.7801 167.53C94.0571 166.88 94.1999 166.181 94.1999 165.475C94.1999 164.769 94.0571 164.07 93.7801 163.42C93.5013 162.8 93.1192 162.232 92.6501 161.74C92.1812 161.262 91.6198 160.884 91.0001 160.63C90.3666 160.365 89.6867 160.229 89.0001 160.23H80.1901C79.5901 160.23 79.2901 160.51 79.2901 161.08V169.84C79.2736 169.962 79.2855 170.086 79.3249 170.203C79.3643 170.32 79.4301 170.426 79.5172 170.513C79.6043 170.6 79.7103 170.666 79.827 170.705C79.9438 170.745 80.068 170.757 80.1901 170.74H89.0001C89.6867 170.741 90.3666 170.605 91.0001 170.34V170.33Z" fill="white"/>
<path d="M133.75 156.25C134.141 155.964 134.615 155.814 135.1 155.82H141.65C140.838 155.951 140.067 156.269 139.4 156.75C138.251 157.621 137.24 158.659 136.4 159.83L125.64 174V188.22C125.645 188.57 125.578 188.917 125.444 189.241C125.31 189.564 125.111 189.856 124.86 190.1C124.623 190.346 124.338 190.54 124.024 190.673C123.709 190.805 123.371 190.872 123.03 190.87H118.93C119.578 190.812 120.179 190.508 120.61 190.02C121.056 189.528 121.295 188.884 121.28 188.22V173.89L110.57 159.83C109.738 158.652 108.725 157.613 107.57 156.75C106.88 156.27 106.09 155.952 105.26 155.82H111.87C112.363 155.816 112.846 155.966 113.25 156.25C113.639 156.497 113.956 156.842 114.17 157.25L123.48 169.52L132.9 157.25C133.112 156.847 133.421 156.503 133.8 156.25" fill="white"/>
<path d="M173.769 190C174.182 190.479 174.761 190.783 175.389 190.85H171.389C171.04 190.856 170.693 190.79 170.37 190.658C170.047 190.525 169.754 190.329 169.509 190.08C169.261 189.844 169.064 189.56 168.93 189.246C168.796 188.931 168.727 188.592 168.729 188.25V177.75H151.169V188.26C151.173 188.942 150.911 189.598 150.439 190.09C150.198 190.344 149.906 190.544 149.582 190.677C149.258 190.81 148.909 190.872 148.559 190.86H144.459C145.105 190.803 145.703 190.498 146.129 190.01C146.575 189.538 146.819 188.91 146.809 188.26V169C146.787 167.246 147.128 165.506 147.809 163.89C148.468 162.318 149.429 160.891 150.639 159.69C151.835 158.489 153.251 157.528 154.809 156.86C156.416 156.184 158.145 155.843 159.889 155.86C161.659 155.84 163.415 156.18 165.049 156.86C166.615 157.518 168.036 158.48 169.229 159.69C170.419 160.9 171.369 162.326 172.029 163.89C172.71 165.506 173.051 167.246 173.029 169V188.27C173.019 188.92 173.263 189.548 173.709 190.02M168.619 169.02C168.633 167.865 168.417 166.719 167.984 165.647C167.552 164.576 166.911 163.602 166.099 162.78C165.3 161.99 164.356 161.362 163.319 160.93C162.222 160.476 161.046 160.248 159.859 160.26C158.692 160.252 157.536 160.48 156.459 160.93C155.417 161.364 154.467 161.992 153.659 162.78C152.856 163.574 152.217 164.519 151.779 165.56C151.325 166.657 151.097 167.833 151.109 169.02V173.37H168.619V169.02Z" fill="white"/>
</g>
<defs>
<clipPath id="clip0_68_2">
<rect width="175.39" height="216.74" fill="white"/>
</clipPath>
</defs>
</svg>
